<svg xmlns="http://www.w3.org/2000/svg" width="125" height="125" viewBox="0 0 256 256">
	<g>
		<path d="M224 128a95.76 95.76 0 0 1-31.8 71.37A72 72 0 0 0 128 160a40 40 0 1 0-40-40a40 40 0 0 0 40 40a72 72 0 0 0-64.2 39.37A96 96 0 1 1 224 128" opacity=".2" />
		<path d="M96.26 37a8 8 0 0 1 5.74-9.71a104.1 104.1 0 0 1 52 0a8 8 0 0 1-2 15.75a8.2 8.2 0 0 1-2-.26a88 88 0 0 0-44 0A8 8 0 0 1 96.26 37m-62.91 73a8 8 0 0 0 9.85-5.57a87.9 87.9 0 0 1 22-38.09a8 8 0 0 0-11.41-11.2a104 104 0 0 0-26 45a8 8 0 0 0 5.56 9.86M150 213.22a88 88 0 0 1-44 0a8 8 0 0 0-4 15.49a104.1 104.1 0 0 0 52 0a8 8 0 0 0-4-15.49m62.8-108.77a8 8 0 0 0 15.42-4.28a104 104 0 0 0-26-45a8 8 0 1 0-11.41 11.21a88.14 88.14 0 0 1 21.98 38.07Zm15.44 51.39a103.7 103.7 0 0 1-30.68 49.47a8 8 0 0 1-12.49-2.31a64 64 0 0 0-114.14 0a8 8 0 0 1-5.67 4.23a8 8 0 0 1-1.46.14a8 8 0 0 1-5.35-2.05a103.74 103.74 0 0 1-30.68-49.49a8 8 0 0 1 15.42-4.27a87.6 87.6 0 0 0 19 34.88a79.57 79.57 0 0 1 36.1-28.77a48 48 0 1 1 59.38 0a79.57 79.57 0 0 1 36.1 28.77a87.6 87.6 0 0 0 19-34.88a8 8 0 1 1 15.42 4.28ZM128 152a32 32 0 1 0-32-32a32 32 0 0 0 32 32"/>
	</g>
</svg>